<svg version="1.1" id="Layer_1" xmlns="http://www.w3.org/2000/svg" xmlns:xlink="http://www.w3.org/1999/xlink" x="0px" y="0px"
	 width="100%" viewBox="0 0 866 288" enable-background="new 0 0 866 288" xml:space="preserve">
<path fill="#FDF9F5" opacity="1.000000" stroke="none" 
	d="
M555.000000,289.000000 
	C370.000031,289.000000 185.500092,289.000000 1.000099,289.000000 
	C1.000066,193.000061 1.000066,97.000137 1.000033,1.000151 
	C289.666534,1.000100 578.333069,1.000100 866.999634,1.000050 
	C866.999756,96.999840 866.999756,192.999680 866.999878,288.999756 
	C763.166687,289.000000 659.333313,289.000000 555.000000,289.000000 
M313.748901,178.605591 
	C314.662048,178.476105 315.575195,178.346619 316.904694,178.158081 
	C311.793365,167.980759 306.903107,158.243576 302.017853,148.516418 
	C312.406525,143.048248 316.130280,136.827972 314.810974,127.487114 
	C313.682343,119.495926 308.120972,113.073006 299.169373,112.417099 
	C286.970612,111.523270 274.657196,112.194176 262.179993,112.194176 
	C262.179993,133.973404 262.179993,156.026688 262.179993,178.250031 
	C266.948456,178.250031 271.486450,178.250031 276.457703,178.250031 
	C276.457703,168.809128 276.457703,159.719070 276.457703,150.713684 
	C286.977997,149.000153 286.981140,148.998627 291.225983,157.731216 
	C292.897400,161.169662 295.007721,164.475891 296.121704,168.087967 
	C298.751099,176.613831 303.919495,180.510498 313.748901,178.605591 
M537.247498,129.112274 
	C527.927063,123.883980 519.274597,124.392021 510.748688,133.498581 
	C510.748688,124.829285 510.748688,117.501488 510.748688,110.129074 
	C505.500275,110.129074 500.972839,110.129074 496.557068,110.129074 
	C496.557068,133.069016 496.557068,155.621735 496.557068,178.309052 
	C500.964905,178.309052 505.037476,178.309052 509.220337,178.309052 
	C509.506073,176.037094 509.757111,174.040985 510.008118,172.044891 
	C510.422089,171.830383 510.836029,171.615875 511.250000,171.401382 
	C511.746674,172.227371 512.118774,173.168411 512.759094,173.861755 
	C520.178772,181.895981 533.492615,181.506149 540.560425,173.206009 
	C549.163025,163.103485 548.859802,137.209106 537.247498,129.112274 
M600.087280,136.556503 
	C597.611023,131.519928 593.859558,127.968254 588.308472,126.586914 
	C580.476379,124.637962 573.614380,126.301514 567.281738,133.944427 
	C567.281738,124.870895 567.281738,117.517654 567.281738,110.054077 
	C562.235107,110.054077 557.839233,110.054077 553.242676,110.054077 
	C553.242676,132.910080 553.242676,155.472778 553.242676,178.318146 
	C557.546082,178.318146 561.637512,178.318146 565.860352,178.318146 
	C566.086731,176.130783 566.298096,174.089233 566.531250,171.836685 
	C567.407959,172.156418 568.025940,172.182617 568.253967,172.494202 
	C573.537048,179.713043 580.786865,180.905396 588.751709,178.703888 
	C596.692871,176.508896 600.426208,170.304184 602.101257,162.724686 
	C604.007507,154.098984 603.857788,145.551056 600.087280,136.556503 
M654.308960,121.450394 
	C657.691711,121.953033 662.020630,121.333054 664.246216,123.208740 
	C668.043396,126.408966 670.520569,131.175537 674.014343,135.910522 
	C677.134094,135.910522 681.580078,135.910522 686.413940,135.910522 
	C686.025879,133.649902 685.858276,131.662033 685.332214,129.774017 
	C682.045837,117.978966 672.986450,111.049629 659.914429,110.226257 
	C645.484131,109.317337 634.199707,114.995270 630.157715,127.144882 
	C627.706543,134.512619 626.787415,142.815018 627.137512,150.609589 
	C628.161621,173.407562 648.673096,186.061401 669.960449,177.712738 
	C679.830139,173.841965 686.520203,163.886810 685.726929,153.818542 
	C684.454712,153.818542 683.148926,153.818542 681.843140,153.818542 
	C678.693665,153.818542 675.544189,153.818542 672.292786,153.818542 
	C671.951782,155.022552 671.681213,155.959274 671.421082,156.898880 
	C669.242493,164.768875 664.539246,168.819855 657.497375,168.888702 
	C650.631104,168.955841 645.306458,164.789276 643.271729,157.138092 
	C641.093567,148.947754 641.088623,140.629791 643.480774,132.461212 
	C644.998779,127.277962 647.906067,123.132492 654.308960,121.450394 
M392.789886,173.268555 
	C392.790771,165.769547 392.509125,158.254974 392.921173,150.778625 
	C393.105530,147.433868 393.826111,143.415939 395.873688,141.079865 
	C397.809967,138.870728 401.775055,137.588104 404.898712,137.488190 
	C408.754028,137.364838 410.356750,140.942474 410.802948,144.438507 
	C411.180634,147.397858 411.102814,150.423187 411.115601,153.419785 
	C411.150787,161.677383 411.127747,169.935196 411.127747,178.188797 
	C416.186371,178.188797 420.554993,178.188797 424.995941,178.188797 
	C424.995941,165.781723 425.322815,153.785324 424.871796,141.818237 
	C424.606689,134.784058 421.559784,128.622162 414.105957,126.568703 
	C407.025482,124.618103 400.146759,124.904724 395.302063,131.808090 
	C394.922272,132.349274 394.123932,132.596710 392.676453,133.517136 
	C392.676453,125.116844 392.676453,117.578545 392.676453,109.979385 
	C387.758301,109.979385 383.467072,109.979385 379.094971,109.979385 
	C379.094971,132.917450 379.094971,155.638443 379.094971,178.605728 
	C382.446045,178.605728 385.459442,178.384216 388.425842,178.662979 
	C391.964020,178.995514 393.379883,177.694183 392.789886,173.268555 
M693.808167,138.446945 
	C690.509033,147.919006 690.408508,157.459763 693.867493,166.841568 
	C699.030884,180.846176 715.682190,184.148193 725.729187,173.335190 
	C726.237122,172.788605 726.863892,172.352478 728.066284,171.326492 
	C728.399658,174.111649 728.640930,176.127060 728.898071,178.275085 
	C733.170166,178.275085 737.225647,178.275085 741.682251,178.275085 
	C741.682251,169.476273 741.682251,161.009308 741.682251,152.542358 
	C741.682251,144.095032 741.682251,135.647705 741.682251,127.251083 
	C736.959778,127.251083 732.902771,127.251083 728.911377,127.251083 
	C728.586609,129.483185 728.316956,131.337036 728.010315,133.444717 
	C713.015686,122.116142 701.336060,123.720413 693.808167,138.446945 
M436.489807,137.157623 
	C432.707092,147.042664 432.438019,157.084991 436.115479,166.949249 
	C441.347565,180.983643 457.682373,184.062775 468.010254,173.242035 
	C468.581848,172.643158 469.498352,172.373398 470.597717,171.758286 
	C470.779755,174.248611 470.921814,176.192261 471.075714,178.297546 
	C475.330078,178.297546 479.405731,178.297546 483.550262,178.297546 
	C483.550262,161.075485 483.550262,144.172546 483.550262,127.212555 
	C479.174652,127.212555 475.105682,127.212555 471.070923,127.212555 
	C470.860626,129.453598 470.681671,131.360657 470.483459,133.473190 
	C458.170563,125.812126 457.753723,125.645859 452.634827,125.964882 
	C445.334381,126.419884 440.113708,129.988480 436.489807,137.157623 
M363.408173,156.067322 
	C365.501343,156.067322 367.594482,156.067322 370.680695,156.067322 
	C369.654755,150.063431 369.175476,144.771179 367.773407,139.735855 
	C366.297638,134.435684 362.728333,130.444092 357.645416,127.999603 
	C340.687958,119.844353 322.660217,130.080322 321.188385,148.748550 
	C320.992981,151.227325 321.001465,153.745041 321.175537,156.226471 
	C322.498077,175.074615 339.940308,185.516296 357.272339,177.794449 
	C363.953949,174.817612 367.727997,169.539841 369.189667,161.869949 
	C365.197784,161.869949 361.718628,161.731949 358.262268,161.951843 
	C357.188812,162.020142 355.822296,162.807770 355.194794,163.694214 
	C351.166290,169.385254 347.862610,170.978958 342.895691,169.318985 
	C337.853851,167.633942 334.965363,162.553894 335.546326,156.056198 
	C344.487610,156.056198 353.457062,156.056198 363.408173,156.067322 
M817.506165,156.072464 
	C824.268066,156.072464 831.030029,156.072464 838.057068,156.072464 
	C838.057068,153.347839 838.141663,151.206360 838.043457,149.073273 
	C837.385437,134.777374 829.193970,126.153893 815.935364,125.746468 
	C800.567078,125.274208 791.328491,132.982239 789.764771,147.696121 
	C789.484863,150.330475 789.382446,153.021072 789.562195,155.660904 
	C790.841125,174.440109 805.796814,184.416519 823.710144,178.515839 
	C831.320312,176.009033 836.465759,169.672333 836.947937,161.869125 
	C834.952454,161.869125 832.960632,162.033966 831.005920,161.834671 
	C826.986145,161.424805 824.187439,162.209015 821.616272,166.111099 
	C820.149231,168.337570 815.630981,169.643478 812.576294,169.496841 
	C806.985596,169.228485 803.753906,163.822357 803.693237,156.071121 
	C807.960571,156.071121 812.234436,156.071121 817.506165,156.072464 
M762.367249,126.878548 
	C759.627319,126.878548 756.887390,126.878548 754.338074,126.878548 
	C754.338074,144.539612 754.338074,161.396576 754.338074,178.211792 
	C759.095154,178.211792 763.475037,178.211792 767.745911,178.211792 
	C767.926270,177.498749 768.077148,177.178818 768.078064,176.858459 
	C768.098572,169.874359 768.100464,162.890213 768.109924,155.906067 
	C768.127441,142.990936 771.068726,139.878738 783.999634,139.052109 
	C784.462524,139.022522 784.912292,138.788925 785.551758,138.594620 
	C785.551758,134.672867 785.551758,130.779648 785.551758,126.566643 
	C777.309998,125.781441 770.919556,127.702217 767.637268,136.497864 
	C766.883789,134.061111 766.731689,132.028656 766.920105,130.028229 
	C767.191345,127.147247 765.658997,126.617172 762.367249,126.878548 
M119.724411,152.519196 
	C117.600227,161.393555 119.470169,163.801697 128.478531,163.796143 
	C133.301804,163.793152 138.125275,163.821304 142.948288,163.784332 
	C149.735718,163.732300 152.203033,160.515961 150.610153,153.867020 
	C148.991684,147.111359 143.543472,142.339783 136.558945,141.560944 
	C129.449020,140.768112 123.934753,144.158417 119.724411,152.519196 
M142.635025,241.715729 
	C141.919983,237.127121 139.275146,234.534683 134.603027,234.599594 
	C130.869934,234.651459 128.389755,236.832031 127.462555,240.406189 
	C126.517616,244.048752 127.974182,246.955246 131.102768,248.862549 
	C135.926605,251.803329 140.991898,248.937790 142.635025,241.715729 
M47.299866,169.231598 
	C41.584377,166.107315 36.317753,167.599182 34.935081,172.849045 
	C33.941441,176.621811 35.039913,179.782379 38.534229,181.732391 
	C41.804607,183.557434 45.031143,183.095291 47.609962,180.435394 
	C50.881653,177.060822 50.752728,173.386459 47.299866,169.231598 
M130.910995,124.166687 
	C127.953659,126.305397 126.167824,129.280197 127.628700,132.689575 
	C128.551941,134.844208 130.900314,137.599609 132.851425,137.806778 
	C135.505356,138.088547 139.462631,136.969070 140.874008,135.015213 
	C142.279678,133.069244 142.171478,128.903214 141.037766,126.511269 
	C139.301270,122.847580 135.502930,122.176048 130.910995,124.166687 
M49.819744,206.586411 
	C53.889225,210.347336 57.383175,210.930206 60.752682,208.183746 
	C63.984673,205.549423 64.829849,202.140076 62.804668,198.457870 
	C60.767715,194.754288 57.364956,193.745651 53.447483,194.982803 
	C49.068867,196.365555 47.627411,200.492523 49.819744,206.586411 
M140.587524,53.019455 
	C143.497299,48.087883 142.965744,43.823959 139.130066,41.328320 
	C135.608963,39.037357 131.014633,39.925453 128.614258,43.455414 
	C126.351440,46.783100 126.617264,50.155994 129.340744,52.971043 
	C132.591324,56.330929 136.326752,56.255669 140.587524,53.019455 
M43.927864,107.448196 
	C39.562836,106.783691 36.438614,108.448334 34.984627,112.624420 
	C33.571823,116.682205 35.719563,120.761627 39.748642,122.196350 
	C43.518642,123.538818 47.539726,121.803864 49.234333,118.103615 
	C51.115086,113.996910 49.569233,110.483437 43.927864,107.448196 
M62.175343,92.571381 
	C62.701633,91.371727 63.476830,90.217995 63.708206,88.963928 
	C64.444519,84.973114 61.491238,81.024208 57.394428,80.269180 
	C53.534389,79.557793 49.779373,81.983231 48.687199,85.893349 
	C47.619461,89.715981 49.634632,94.292793 53.487148,94.858223 
	C56.086758,95.239777 58.955402,93.788269 62.175343,92.571381 
M206.300369,89.896355 
	C207.700760,93.815903 210.628143,96.350540 214.570251,95.219017 
	C217.112274,94.489365 220.027618,91.927521 220.904739,89.508453 
	C221.623459,87.526169 220.307724,83.584496 218.564697,82.258293 
	C216.634354,80.789536 212.966217,80.475143 210.464813,81.158569 
	C206.956757,82.117043 205.725632,85.453903 206.300369,89.896355 
M221.416550,202.395081 
	C221.285919,198.237854 219.321991,194.916321 215.167389,194.870331 
	C212.496475,194.840744 208.659790,196.380859 207.437225,198.452026 
	C206.217072,200.519119 206.786606,204.598923 208.119171,206.900162 
	C209.104446,208.601654 212.598373,209.661682 214.928284,209.585693 
	C218.540466,209.467865 220.766800,206.838028 221.416550,202.395081 
M231.154800,108.131691 
	C225.319427,106.470985 220.826920,108.615204 220.053070,113.556198 
	C219.442566,117.454330 220.988861,120.451218 224.616531,121.988632 
	C228.494522,123.632118 231.964890,122.517128 234.062363,118.966064 
	C236.385513,115.032883 235.583008,111.346550 231.154800,108.131691 
M184.599686,67.178253 
	C186.404617,73.136131 190.996017,75.665001 195.655319,73.154625 
	C199.111801,71.292305 200.666016,68.284424 199.634506,64.456879 
	C198.620346,60.693653 195.957443,58.602596 191.944931,58.797184 
	C187.172653,59.028622 184.890869,61.848064 184.599686,67.178253 
M235.226730,174.653976 
	C233.953934,169.306320 230.737381,166.595444 226.403351,167.481140 
	C222.364288,168.306549 219.991867,170.802979 219.946503,175.073395 
	C219.903824,179.088974 222.974548,182.378540 226.951782,182.743195 
	C231.100998,183.123596 234.053055,180.496155 235.226730,174.653976 
M194.841873,230.875275 
	C196.027634,229.989975 197.453781,229.298599 198.353867,228.182846 
	C201.015457,224.883545 200.254044,220.138153 196.846909,217.538651 
	C193.669098,215.114136 189.137924,215.551422 186.446686,218.542343 
	C183.694458,221.601028 183.751205,226.911804 187.125580,229.223419 
	C188.983215,230.495987 191.716003,230.491058 194.841873,230.875275 
M104.581238,60.156921 
	C110.469238,59.225105 113.208466,55.969311 112.290314,50.994061 
	C111.545914,46.960403 107.617912,44.244884 103.450348,45.026669 
	C99.779274,45.715321 97.479576,48.083229 97.194191,51.725456 
	C96.835907,56.298191 99.140656,59.223644 104.581238,60.156921 
M227.608353,138.983200 
	C224.049133,143.201370 223.727112,147.319946 226.902878,150.344177 
	C229.916641,153.214142 233.337601,153.554352 236.826523,151.217697 
	C240.137375,149.000320 241.010269,144.596100 238.973373,141.113510 
	C236.847229,137.478333 233.271622,136.623947 227.608353,138.983200 
M42.996666,150.375336 
	C45.991379,145.685501 45.734554,141.701233 42.262226,138.981445 
	C38.946426,136.384262 34.207855,136.792343 31.603745,140.086105 
	C29.167149,143.167969 29.122889,146.522980 31.424515,149.687225 
	C33.900635,153.091354 37.640366,153.419800 42.996666,150.375336 
M172.405151,54.758125 
	C173.496307,50.162910 171.767715,46.806561 167.439377,45.306801 
	C163.560562,43.962795 160.232468,45.376045 158.181656,49.035828 
	C156.252136,52.479149 157.526428,56.847008 160.919693,59.014011 
	C164.833237,61.513283 168.818222,60.255951 172.405151,54.758125 
M99.540535,243.044067 
	C105.308418,246.544006 110.893524,244.997360 112.166893,239.455948 
	C112.981483,235.911041 112.072662,232.822647 108.769363,230.938095 
	C105.377129,229.002792 101.990868,229.313843 99.289886,232.185577 
	C96.258530,235.408569 96.316811,238.973572 99.540535,243.044067 
M172.749557,236.727280 
	C171.937332,229.790024 164.112900,228.200485 160.380875,231.367966 
	C157.593613,233.733597 156.435486,236.675751 157.885300,240.208344 
	C159.294296,243.641479 161.942856,245.396027 165.688599,245.039078 
	C170.188873,244.610245 172.295776,241.769485 172.749557,236.727280 
M77.519882,58.793243 
	C73.434395,58.872658 70.975143,61.055866 70.112724,64.907097 
	C69.199577,68.984917 72.038872,73.078682 76.105507,73.901245 
	C80.022865,74.693611 84.047180,72.244331 85.030869,68.469101 
	C86.269020,63.717285 83.904411,60.301399 77.519882,58.793243 
M85.214348,224.354736 
	C85.433929,220.104141 83.509178,217.293884 79.414520,216.194168 
	C75.562462,215.159622 71.496651,217.522827 70.282547,221.286850 
	C69.076836,225.024857 71.115738,229.389908 74.717720,230.782059 
	C79.191353,232.511093 82.926949,230.497101 85.214348,224.354736 
M118.112793,209.494690 
	C116.196350,208.475281 114.282570,206.627747 112.362877,206.621567 
	C109.106430,206.611115 107.287697,209.148727 107.585297,212.412537 
	C107.906120,215.931000 110.274689,217.959122 113.740555,217.441376 
	C117.657463,216.856247 119.400238,214.243790 118.112793,209.494690 
M113.406937,83.698029 
	C118.861740,81.626648 120.634651,77.149834 116.916435,74.170677 
	C115.509918,73.043732 112.692329,72.466057 111.113365,73.106354 
	C109.527786,73.749321 107.929672,76.115593 107.679054,77.913689 
	C107.224373,81.175911 109.471909,83.048241 113.406937,83.698029 
M206.618729,119.987144 
	C204.094406,119.509079 201.435211,118.363350 199.102646,118.834557 
	C197.935928,119.070251 196.553162,122.323494 196.697708,124.095284 
	C196.980835,127.565559 199.685898,129.515076 203.079330,128.662003 
	C207.108994,127.648987 208.675629,124.745926 206.618729,119.987144 
M151.097382,77.635132 
	C151.438248,81.890282 153.686829,84.158272 157.974701,83.389442 
	C161.238647,82.804184 163.017258,80.202118 162.027679,77.124184 
	C161.436264,75.284645 158.871643,72.582565 157.597870,72.786819 
	C155.304962,73.154495 153.315613,75.415237 151.097382,77.635132 
M63.567879,126.891327 
	C65.362862,127.506279 67.281174,128.858200 68.927155,128.582764 
	C72.354675,128.009186 73.979683,125.392654 73.118706,121.918564 
	C72.254974,118.433289 69.676872,117.141586 66.258041,117.946259 
	C62.735138,118.775421 61.654819,121.839844 63.567879,126.891327 
M151.761261,214.506561 
	C153.854736,215.465118 156.017456,217.328674 158.025848,217.175018 
	C161.222641,216.930420 162.753708,214.222641 162.155838,210.940948 
	C161.554047,207.637650 159.197067,205.941299 156.016586,206.486862 
	C152.093292,207.159866 150.458725,209.822327 151.761261,214.506561 
M205.605301,171.033371 
	C208.040680,168.764389 208.640259,165.947113 206.420380,163.552994 
	C205.175659,162.210541 202.406036,161.030182 200.885941,161.520538 
	C199.098068,162.097290 197.083344,164.368668 196.645721,166.249268 
	C195.640869,170.567459 199.687515,172.909821 205.605301,171.033371 
M200.012604,146.163956 
	C200.956680,149.290558 203.168686,151.280594 206.265747,150.375381 
	C208.113708,149.835281 210.282043,147.745102 210.812912,145.917847 
	C211.796112,142.533600 209.700760,139.925919 206.253204,139.526291 
	C202.281616,139.065903 200.078674,141.316910 200.012604,146.163956 
M62.758636,164.392380 
	C63.399979,166.722717 63.404167,169.705002 64.897057,171.164001 
	C65.968811,172.211441 69.492851,171.938980 71.062088,170.924210 
	C72.397675,170.060516 73.259148,167.190125 73.007286,165.392944 
	C72.350922,160.709305 67.471062,159.995178 62.758636,164.392380 
M59.236904,147.395096 
	C61.442581,148.381409 64.182678,150.660690 65.718315,150.025955 
	C67.627174,149.236969 69.892654,145.750397 69.510254,143.962189 
	C69.113876,142.108627 65.719170,139.641769 63.663975,139.667755 
	C59.801083,139.716599 58.213989,142.796036 59.236904,147.395096 
M196.323410,100.096352 
	C193.177368,97.020401 189.991547,97.123550 187.428650,100.587448 
	C185.491913,103.205063 185.885605,106.356232 188.759552,107.914810 
	C190.455307,108.834450 193.393188,108.894554 195.108078,108.027367 
	C197.997498,106.566246 198.273743,103.617218 196.323410,100.096352 
M171.893600,205.264389 
	C174.270828,205.802292 176.905045,207.195984 178.937500,206.585663 
	C180.358994,206.158829 181.813065,202.923859 181.664536,201.070328 
	C181.536377,199.470566 179.437576,197.333298 177.735428,196.690765 
	C173.349518,195.035141 170.437424,198.889954 171.893600,205.264389 
M92.700981,82.480820 
	C89.249992,83.269157 87.173508,85.526596 88.135170,88.904182 
	C88.657417,90.738464 90.958237,93.191559 92.587067,93.293983 
	C94.519333,93.415482 97.317558,91.784058 98.444962,90.063438 
	C100.486160,86.948181 98.204994,83.873970 92.700981,82.480820 
M170.890747,88.411896 
	C171.521713,92.485260 174.174423,94.567451 177.832031,93.181427 
	C179.686417,92.478714 181.679672,89.336823 181.644150,87.332512 
	C181.615280,85.703819 178.883347,83.212006 176.945587,82.730217 
	C173.587875,81.895393 171.348450,84.037933 170.890747,88.411896 
M73.016151,106.479591 
	C77.171928,110.316826 82.131577,109.777016 83.015411,105.153252 
	C83.354088,103.381470 82.573380,100.476425 81.266411,99.550346 
	C79.753456,98.478310 76.243462,98.079781 75.145348,99.081856 
	C73.590843,100.500366 73.450325,103.468407 73.016151,106.479591 
M82.670914,189.270859 
	C84.310402,185.301163 83.309669,182.021423 79.083488,181.201447 
	C77.248291,180.845383 73.946587,182.410446 73.130287,184.023575 
	C72.311546,185.641510 73.036926,189.070572 74.372429,190.520813 
	C76.694641,193.042511 79.787216,192.505142 82.670914,189.270859 
M129.812149,217.645477 
	C131.506622,220.755203 134.350830,222.240265 137.195663,220.256836 
	C138.894882,219.072159 140.465485,215.616608 139.913055,213.872681 
	C139.355179,212.111557 136.068039,210.097443 134.040817,210.163605 
	C130.385635,210.282867 128.799576,213.164581 129.812149,217.645477 
M139.745743,71.695808 
	C137.897430,70.814461 136.003052,69.122971 134.210663,69.224899 
	C130.761566,69.421074 128.425171,72.187233 129.588150,75.399521 
	C130.320023,77.421059 133.482788,79.881912 135.509201,79.841599 
	C139.770264,79.756836 141.265594,76.546844 139.745743,71.695808 
M98.368622,204.568726 
	C97.824028,202.201447 97.937317,199.231705 96.509865,197.672913 
	C95.512901,196.584229 91.968956,196.686752 90.375351,197.630127 
	C88.985695,198.452744 87.962738,201.266632 88.128609,203.076889 
	C88.553177,207.710388 93.476677,208.672318 98.368622,204.568726 
M197.396378,184.972229 
	C196.246796,181.546478 193.639023,179.934525 190.462540,181.226074 
	C188.717957,181.935425 186.714325,184.464661 186.671890,186.217957 
	C186.628769,188.000763 188.455963,190.541794 190.165710,191.503433 
	C193.569778,193.418045 196.635086,190.796082 197.396378,184.972229 
M177.750610,144.652267 
	C179.043274,146.027267 180.175659,147.677505 181.738937,148.587784 
	C182.140167,148.821442 184.596588,146.859344 184.836243,145.653137 
	C185.065460,144.499542 183.529114,141.844421 182.960358,141.897614 
	C181.216705,142.060699 179.565033,143.207367 177.750610,144.652267 
M85.960342,147.755722 
	C87.813866,147.518448 89.827370,147.613754 91.425270,146.845108 
	C91.916870,146.608643 91.806595,143.529114 90.996620,142.632141 
	C90.206619,141.757294 87.145622,141.405609 86.868858,141.875946 
	C85.970200,143.403091 85.890839,145.412354 85.960342,147.755722 
M182.940659,159.544754 
	C181.565186,158.255432 180.351685,156.601013 178.724487,155.879059 
	C178.170883,155.633438 175.847076,157.620926 175.660431,158.798538 
	C175.473450,159.978210 177.095947,162.601547 177.661514,162.529205 
	C179.437927,162.302002 181.090164,161.104050 182.940659,159.544754 
M177.302444,127.427544 
	C176.942612,129.266861 176.215332,131.153458 176.442291,132.917267 
	C176.512253,133.460953 179.467911,134.325851 180.587112,133.844894 
	C181.680618,133.374969 183.017365,130.570938 182.678833,130.191666 
	C181.479568,128.848190 179.609344,128.103653 177.302444,127.427544 
M87.203766,131.929184 
	C89.001778,132.573792 90.777374,133.500443 92.615005,133.646484 
	C93.027054,133.679214 94.229568,130.879120 93.999931,129.570694 
	C93.823364,128.564606 91.372581,126.917900 90.968315,127.176216 
	C89.430359,128.158905 88.312538,129.799149 87.203766,131.929184 
M87.188751,158.095871 
	C88.174629,159.714020 88.945503,161.569962 90.292938,162.788208 
	C90.643211,163.104904 93.318764,161.720200 93.951485,160.577316 
	C94.453384,159.670715 93.585655,156.822159 93.119011,156.772278 
	C91.303337,156.578140 89.405136,157.155991 87.188751,158.095871 
M99.562180,120.700005 
	C99.639259,118.810562 100.007065,116.854813 99.601219,115.075523 
	C99.491562,114.594803 96.590416,114.024719 95.770592,114.612144 
	C94.697182,115.381279 93.598389,118.194427 93.941032,118.494408 
	C95.303711,119.687439 97.222649,120.245132 99.562180,120.700005 
M152.113434,191.524704 
	C151.828537,189.681992 151.875214,187.667984 151.063812,186.097260 
	C150.808655,185.603333 147.737686,185.772522 146.887756,186.598053 
	C146.022842,187.438065 145.711929,190.494583 146.197922,190.774246 
	C147.725128,191.653137 149.741180,191.682587 152.113434,191.524704 
M134.633667,187.724182 
	C133.508621,189.221420 132.064789,190.605301 131.465836,192.289612 
	C131.300583,192.754303 133.635620,194.829437 134.855957,194.859848 
	C136.043015,194.889435 138.421997,192.904938 138.272064,192.397858 
	C137.771133,190.703842 136.371445,189.275589 134.633667,187.724182 
M148.774139,97.152756 
	C145.275452,99.429581 144.481903,102.421997 147.249634,103.723869 
	C148.543564,104.332489 151.476715,103.859741 152.187927,102.842773 
	C154.145569,100.043579 152.663956,97.990112 148.774139,97.152756 
M94.978386,169.429810 
	C92.872536,171.829987 93.061775,174.232651 95.907951,175.473404 
	C97.038132,175.966095 99.239990,174.895813 100.452469,173.916336 
	C101.034775,173.445953 100.923592,170.847031 100.297554,170.416031 
	C99.004852,169.526062 97.156372,169.443375 94.978386,169.429810 
M135.298752,94.954842 
	C133.964157,96.436516 132.629578,97.918190 131.294998,99.399864 
	C132.827454,100.310913 134.278397,101.546860 135.935135,101.962494 
	C136.541595,102.114632 138.457870,100.187019 138.336502,99.443146 
	C138.086105,97.908592 136.867508,96.532028 135.298752,94.954842 
M169.861481,120.221390 
	C172.906662,122.237061 175.268982,121.838432 176.046692,118.024384 
	C176.246613,117.043953 175.350174,115.364517 174.451813,114.769493 
	C173.555557,114.175873 171.240768,114.057556 170.921860,114.576004 
	C170.021530,116.039673 169.826096,117.936951 169.861481,120.221390 
M105.204018,185.324188 
	C107.140770,184.851578 109.145126,184.530655 110.936760,183.732346 
	C111.187149,183.620789 110.825012,180.541183 109.973061,179.950043 
	C108.894470,179.201630 106.128906,178.977142 105.682732,179.624252 
	C104.771729,180.945526 104.925087,183.000656 105.204018,185.324188 
M161.024963,110.957039 
	C162.561325,110.304260 164.365158,109.939651 165.515991,108.871506 
	C166.054016,108.372116 165.748703,105.809776 165.089813,105.417107 
	C163.745926,104.616211 161.389786,103.847778 160.367203,104.500931 
	C157.785019,106.150230 158.015091,108.572510 161.024963,110.957039 
M109.586327,110.617882 
	C112.180763,107.975975 112.076843,105.580383 108.568916,104.079185 
	C107.650917,103.686333 105.679924,104.231583 105.072136,105.022209 
	C104.314415,106.007866 103.796028,108.318863 104.374451,108.940041 
	C105.408272,110.050278 107.340645,110.323814 109.586327,110.617882 
M120.575912,192.882706 
	C121.762901,191.403397 123.295631,190.053772 123.928360,188.366608 
	C124.120728,187.853622 121.939484,185.823914 120.641556,185.581863 
	C119.648552,185.396698 117.251595,187.163803 117.357849,187.661118 
	C117.742531,189.461578 118.919907,191.092667 120.575912,192.882706 
M170.316513,175.219162 
	C172.149200,174.793060 174.123032,174.628479 175.720490,173.766464 
	C176.147476,173.536041 175.904007,170.585403 175.109390,169.938232 
	C174.086731,169.105362 171.082367,168.789825 170.880707,169.202911 
	C170.090378,170.821991 170.066788,172.815369 170.316513,175.219162 
M123.734558,102.812416 
	C123.103004,101.011353 122.714073,99.040970 121.661949,97.533424 
	C121.412376,97.175819 118.486992,97.981026 117.632782,98.974159 
	C116.955894,99.761131 117.204590,102.709610 117.666199,102.866859 
	C119.385971,103.452728 121.363029,103.283340 123.734558,102.812416 
M165.978989,182.503769 
	C164.517944,181.318985 163.175110,179.870331 161.516190,179.127258 
	C161.078827,178.931366 158.919601,180.890152 158.885696,181.904144 
	C158.841827,183.216385 160.396774,185.789108 160.809052,185.700684 
	C162.595993,185.317474 164.217468,184.162857 165.978989,182.503769 
z"/>
<path fill="#224261" opacity="1.000000" stroke="none" 
	d="
M313.328613,178.605408 
	C303.919495,180.510498 298.751099,176.613831 296.121704,168.087967 
	C295.007721,164.475891 292.897400,161.169662 291.225983,157.731216 
	C286.981140,148.998627 286.977997,149.000153 276.457703,150.713684 
	C276.457703,159.719070 276.457703,168.809128 276.457703,178.250031 
	C271.486450,178.250031 266.948456,178.250031 262.179993,178.250031 
	C262.179993,156.026688 262.179993,133.973404 262.179993,112.194176 
	C274.657196,112.194176 286.970612,111.523270 299.169373,112.417099 
	C308.120972,113.073006 313.682343,119.495926 314.810974,127.487114 
	C316.130280,136.827972 312.406525,143.048248 302.017853,148.516418 
	C306.903107,158.243576 311.793365,167.980759 316.904694,178.158081 
	C315.575195,178.346619 314.662048,178.476105 313.328613,178.605408 
M299.206360,126.656326 
	C297.492035,125.462448 295.882355,123.463638 294.043854,123.224586 
	C288.370636,122.486893 282.610077,122.420784 276.661469,122.081154 
	C276.661469,128.435593 276.661469,133.950897 276.661469,139.756882 
	C280.328430,139.756882 283.630615,139.779297 286.932220,139.745865 
	C288.257172,139.732452 289.590088,139.669373 290.903625,139.503952 
	C298.925690,138.493576 301.032684,135.533676 299.206360,126.656326 
z"/>
<path fill="#254361" opacity="1.000000" stroke="none" 
	d="
M537.540222,129.333160 
	C548.859802,137.209106 549.163025,163.103485 540.560425,173.206009 
	C533.492615,181.506149 520.178772,181.895981 512.759094,173.861755 
	C512.118774,173.168411 511.746674,172.227371 511.250000,171.401382 
	C510.836029,171.615875 510.422089,171.830383 510.008118,172.044891 
	C509.757111,174.040985 509.506073,176.037094 509.220337,178.309052 
	C505.037476,178.309052 500.964905,178.309052 496.557068,178.309052 
	C496.557068,155.621735 496.557068,133.069016 496.557068,110.129074 
	C500.972839,110.129074 505.500275,110.129074 510.748688,110.129074 
	C510.748688,117.501488 510.748688,124.829285 510.748688,133.498581 
	C519.274597,124.392021 527.927063,123.883980 537.540222,129.333160 
M525.240479,168.926102 
	C527.068726,166.670090 530.165527,164.574799 530.475708,162.126434 
	C531.253540,155.987747 531.299622,149.629410 530.605042,143.475922 
	C530.146484,139.413284 527.220825,136.247177 522.520569,135.914917 
	C517.759766,135.578369 514.493958,138.005325 512.682312,142.125381 
	C509.596771,149.142639 509.548889,156.358170 512.739807,163.346970 
	C515.109375,168.536697 518.639038,170.064178 525.240479,168.926102 
z"/>
<path fill="#234160" opacity="1.000000" stroke="none" 
	d="
M600.247314,136.904617 
	C603.857788,145.551056 604.007507,154.098984 602.101257,162.724686 
	C600.426208,170.304184 596.692871,176.508896 588.751709,178.703888 
	C580.786865,180.905396 573.537048,179.713043 568.253967,172.494202 
	C568.025940,172.182617 567.407959,172.156418 566.531250,171.836685 
	C566.298096,174.089233 566.086731,176.130783 565.860352,178.318146 
	C561.637512,178.318146 557.546082,178.318146 553.242676,178.318146 
	C553.242676,155.472778 553.242676,132.910080 553.242676,110.054077 
	C557.839233,110.054077 562.235107,110.054077 567.281738,110.054077 
	C567.281738,117.517654 567.281738,124.870895 567.281738,133.944427 
	C573.614380,126.301514 580.476379,124.637962 588.308472,126.586914 
	C593.859558,127.968254 597.611023,131.519928 600.247314,136.904617 
M567.296875,149.084656 
	C568.203064,154.228653 568.258850,159.758850 570.350647,164.364395 
	C571.510315,166.917816 575.928772,168.909180 579.138123,169.379013 
	C583.061157,169.953278 586.260620,166.836960 586.946777,163.015305 
	C587.898193,157.716202 588.441223,152.191147 588.055237,146.842499 
	C587.554504,139.904495 584.046448,136.234589 579.228638,135.896881 
	C573.830322,135.518478 569.803894,139.057114 567.967346,145.813614 
	C567.749756,146.613815 567.607788,147.434570 567.296875,149.084656 
z"/>
<path fill="#224160" opacity="1.000000" stroke="none" 
	d="
M653.928345,121.560577 
	C647.906067,123.132492 644.998779,127.277962 643.480774,132.461212 
	C641.088623,140.629791 641.093567,148.947754 643.271729,157.138092 
	C645.306458,164.789276 650.631104,168.955841 657.497375,168.888702 
	C664.539246,168.819855 669.242493,164.768875 671.421082,156.898880 
	C671.681213,155.959274 671.951782,155.022552 672.292786,153.818542 
	C675.544189,153.818542 678.693665,153.818542 681.843140,153.818542 
	C683.148926,153.818542 684.454712,153.818542 685.726929,153.818542 
	C686.520203,163.886810 679.830139,173.841965 669.960449,177.712738 
	C648.673096,186.061401 628.161621,173.407562 627.137512,150.609589 
	C626.787415,142.815018 627.706543,134.512619 630.157715,127.144882 
	C634.199707,114.995270 645.484131,109.317337 659.914429,110.226257 
	C672.986450,111.049629 682.045837,117.978966 685.332214,129.774017 
	C685.858276,131.662033 686.025879,133.649902 686.413940,135.910522 
	C681.580078,135.910522 677.134094,135.910522 674.014343,135.910522 
	C670.520569,131.175537 668.043396,126.408966 664.246216,123.208740 
	C662.020630,121.333054 657.691711,121.953033 653.928345,121.560577 
z"/>
<path fill="#234261" opacity="1.000000" stroke="none" 
	d="
M392.790588,173.736420 
	C393.379883,177.694183 391.964020,178.995514 388.425842,178.662979 
	C385.459442,178.384216 382.446045,178.605728 379.094971,178.605728 
	C379.094971,155.638443 379.094971,132.917450 379.094971,109.979385 
	C383.467072,109.979385 387.758301,109.979385 392.676453,109.979385 
	C392.676453,117.578545 392.676453,125.116844 392.676453,133.517136 
	C394.123932,132.596710 394.922272,132.349274 395.302063,131.808090 
	C400.146759,124.904724 407.025482,124.618103 414.105957,126.568703 
	C421.559784,128.622162 424.606689,134.784058 424.871796,141.818237 
	C425.322815,153.785324 424.995941,165.781723 424.995941,178.188797 
	C420.554993,178.188797 416.186371,178.188797 411.127747,178.188797 
	C411.127747,169.935196 411.150787,161.677383 411.115601,153.419785 
	C411.102814,150.423187 411.180634,147.397858 410.802948,144.438507 
	C410.356750,140.942474 408.754028,137.364838 404.898712,137.488190 
	C401.775055,137.588104 397.809967,138.870728 395.873688,141.079865 
	C393.826111,143.415939 393.105530,147.433868 392.921173,150.778625 
	C392.509125,158.254974 392.790771,165.769547 392.790588,173.736420 
z"/>
<path fill="#254362" opacity="1.000000" stroke="none" 
	d="
M693.927185,138.080292 
	C701.336060,123.720413 713.015686,122.116142 728.010315,133.444717 
	C728.316956,131.337036 728.586609,129.483185 728.911377,127.251083 
	C732.902771,127.251083 736.959778,127.251083 741.682251,127.251083 
	C741.682251,135.647705 741.682251,144.095032 741.682251,152.542358 
	C741.682251,161.009308 741.682251,169.476273 741.682251,178.275085 
	C737.225647,178.275085 733.170166,178.275085 728.898071,178.275085 
	C728.640930,176.127060 728.399658,174.111649 728.066284,171.326492 
	C726.863892,172.352478 726.237122,172.788605 725.729187,173.335190 
	C715.682190,184.148193 699.030884,180.846176 693.867493,166.841568 
	C690.408508,157.459763 690.509033,147.919006 693.927185,138.080292 
M706.844849,160.347015 
	C708.803345,166.849289 711.702148,169.709717 716.273254,169.650497 
	C721.008545,169.589142 725.003296,166.150024 726.522461,160.275482 
	C728.182678,153.855103 728.200928,147.415634 724.977173,141.379257 
	C722.927673,137.541626 719.677490,135.486038 715.177246,135.947891 
	C710.988708,136.377731 708.214905,139.075089 707.629700,142.832458 
	C706.775635,148.316742 706.932861,153.958527 706.844849,160.347015 
z"/>
<path fill="#234261" opacity="1.000000" stroke="none" 
	d="
M436.663513,136.820023 
	C440.113708,129.988480 445.334381,126.419884 452.634827,125.964882 
	C457.753723,125.645859 458.170563,125.812126 470.483459,133.473190 
	C470.681671,131.360657 470.860626,129.453598 471.070923,127.212555 
	C475.105682,127.212555 479.174652,127.212555 483.550262,127.212555 
	C483.550262,144.172546 483.550262,161.075485 483.550262,178.297546 
	C479.405731,178.297546 475.330078,178.297546 471.075714,178.297546 
	C470.921814,176.192261 470.779755,174.248611 470.597717,171.758286 
	C469.498352,172.373398 468.581848,172.643158 468.010254,173.242035 
	C457.682373,184.062775 441.347565,180.983643 436.115479,166.949249 
	C432.438019,157.084991 432.707092,147.042664 436.663513,136.820023 
M450.359131,141.108719 
	C447.549744,148.008804 447.531525,155.055984 449.513947,162.115280 
	C450.676697,166.255692 453.241791,169.319473 457.825806,169.580490 
	C462.248962,169.832352 465.538055,167.558044 467.384796,163.629303 
	C470.753357,156.463013 470.881470,149.061707 467.452881,141.951767 
	C463.808044,134.393463 456.068146,133.842499 450.359131,141.108719 
z"/>
<path fill="#234261" opacity="1.000000" stroke="none" 
	d="
M362.917358,156.061768 
	C353.457062,156.056198 344.487610,156.056198 335.546326,156.056198 
	C334.965363,162.553894 337.853851,167.633942 342.895691,169.318985 
	C347.862610,170.978958 351.166290,169.385254 355.194794,163.694214 
	C355.822296,162.807770 357.188812,162.020142 358.262268,161.951843 
	C361.718628,161.731949 365.197784,161.869949 369.189667,161.869949 
	C367.727997,169.539841 363.953949,174.817612 357.272339,177.794449 
	C339.940308,185.516296 322.498077,175.074615 321.175537,156.226471 
	C321.001465,153.745041 320.992981,151.227325 321.188385,148.748550 
	C322.660217,130.080322 340.687958,119.844353 357.645416,127.999603 
	C362.728333,130.444092 366.297638,134.435684 367.773407,139.735855 
	C369.175476,144.771179 369.654755,150.063431 370.680695,156.067322 
	C367.594482,156.067322 365.501343,156.067322 362.917358,156.061768 
M343.983032,135.161591 
	C337.615906,137.390549 335.574890,140.132889 335.358521,146.911774 
	C342.139465,146.911774 348.914124,146.911774 355.690155,146.911774 
	C355.606201,138.831238 352.404877,135.424316 343.983032,135.161591 
z"/>
<path fill="#234160" opacity="1.000000" stroke="none" 
	d="
M817.007202,156.071793 
	C812.234436,156.071121 807.960571,156.071121 803.693237,156.071121 
	C803.753906,163.822357 806.985596,169.228485 812.576294,169.496841 
	C815.630981,169.643478 820.149231,168.337570 821.616272,166.111099 
	C824.187439,162.209015 826.986145,161.424805 831.005920,161.834671 
	C832.960632,162.033966 834.952454,161.869125 836.947937,161.869125 
	C836.465759,169.672333 831.320312,176.009033 823.710144,178.515839 
	C805.796814,184.416519 790.841125,174.440109 789.562195,155.660904 
	C789.382446,153.021072 789.484863,150.330475 789.764771,147.696121 
	C791.328491,132.982239 800.567078,125.274208 815.935364,125.746468 
	C829.193970,126.153893 837.385437,134.777374 838.043457,149.073273 
	C838.141663,151.206360 838.057068,153.347839 838.057068,156.072464 
	C831.030029,156.072464 824.268066,156.072464 817.007202,156.071793 
M823.699768,142.385178 
	C821.004395,136.438034 817.495911,134.233383 812.233154,135.179733 
	C807.002869,136.120239 803.981934,140.227158 803.700623,146.891113 
	C810.462219,146.891113 817.216797,146.891113 824.169189,146.891113 
	C824.069763,145.490875 823.988647,144.348755 823.699768,142.385178 
z"/>
<path fill="#244261" opacity="1.000000" stroke="none" 
	d="
M762.840698,126.878922 
	C765.658997,126.617172 767.191345,127.147247 766.920105,130.028229 
	C766.731689,132.028656 766.883789,134.061111 767.637268,136.497864 
	C770.919556,127.702217 777.309998,125.781441 785.551758,126.566643 
	C785.551758,130.779648 785.551758,134.672867 785.551758,138.594620 
	C784.912292,138.788925 784.462524,139.022522 783.999634,139.052109 
	C771.068726,139.878738 768.127441,142.990936 768.109924,155.906067 
	C768.100464,162.890213 768.098572,169.874359 768.078064,176.858459 
	C768.077148,177.178818 767.926270,177.498749 767.745911,178.211792 
	C763.475037,178.211792 759.095154,178.211792 754.338074,178.211792 
	C754.338074,161.396576 754.338074,144.539612 754.338074,126.878548 
	C756.887390,126.878548 759.627319,126.878548 762.840698,126.878922 
z"/>
<path fill="#254361" opacity="1.000000" stroke="none" 
	d="
M119.844971,152.141113 
	C123.934753,144.158417 129.449020,140.768112 136.558945,141.560944 
	C143.543472,142.339783 148.991684,147.111359 150.610153,153.867020 
	C152.203033,160.515961 149.735718,163.732300 142.948288,163.784332 
	C138.125275,163.821304 133.301804,163.793152 128.478531,163.796143 
	C119.470169,163.801697 117.600227,161.393555 119.844971,152.141113 
z"/>
<path fill="#284561" opacity="1.000000" stroke="none" 
	d="
M142.630814,242.092010 
	C140.991898,248.937790 135.926605,251.803329 131.102768,248.862549 
	C127.974182,246.955246 126.517616,244.048752 127.462555,240.406189 
	C128.389755,236.832031 130.869934,234.651459 134.603027,234.599594 
	C139.275146,234.534683 141.919983,237.127121 142.630814,242.092010 
z"/>
<path fill="#284562" opacity="1.000000" stroke="none" 
	d="
M47.570007,169.497620 
	C50.752728,173.386459 50.881653,177.060822 47.609962,180.435394 
	C45.031143,183.095291 41.804607,183.557434 38.534229,181.732391 
	C35.039913,179.782379 33.941441,176.621811 34.935081,172.849045 
	C36.317753,167.599182 41.584377,166.107315 47.570007,169.497620 
z"/>
<path fill="#284561" opacity="1.000000" stroke="none" 
	d="
M131.265259,124.005157 
	C135.502930,122.176048 139.301270,122.847580 141.037766,126.511269 
	C142.171478,128.903214 142.279678,133.069244 140.874008,135.015213 
	C139.462631,136.969070 135.505356,138.088547 132.851425,137.806778 
	C130.900314,137.599609 128.551941,134.844208 127.628700,132.689575 
	C126.167824,129.280197 127.953659,126.305397 131.265259,124.005157 
z"/>
<path fill="#264360" opacity="1.000000" stroke="none" 
	d="
M49.601532,206.281616 
	C47.627411,200.492523 49.068867,196.365555 53.447483,194.982803 
	C57.364956,193.745651 60.767715,194.754288 62.804668,198.457870 
	C64.829849,202.140076 63.984673,205.549423 60.752682,208.183746 
	C57.383175,210.930206 53.889225,210.347336 49.601532,206.281616 
z"/>
<path fill="#284561" opacity="1.000000" stroke="none" 
	d="
M140.321396,53.281582 
	C136.326752,56.255669 132.591324,56.330929 129.340744,52.971043 
	C126.617264,50.155994 126.351440,46.783100 128.614258,43.455414 
	C131.014633,39.925453 135.608963,39.037357 139.130066,41.328320 
	C142.965744,43.823959 143.497299,48.087883 140.321396,53.281582 
z"/>
<path fill="#284562" opacity="1.000000" stroke="none" 
	d="
M44.291573,107.572189 
	C49.569233,110.483437 51.115086,113.996910 49.234333,118.103615 
	C47.539726,121.803864 43.518642,123.538818 39.748642,122.196350 
	C35.719563,120.761627 33.571823,116.682205 34.984627,112.624420 
	C36.438614,108.448334 39.562836,106.783691 44.291573,107.572189 
z"/>
<path fill="#264360" opacity="1.000000" stroke="none" 
	d="
M61.939522,92.864059 
	C58.955402,93.788269 56.086758,95.239777 53.487148,94.858223 
	C49.634632,94.292793 47.619461,89.715981 48.687199,85.893349 
	C49.779373,81.983231 53.534389,79.557793 57.394428,80.269180 
	C61.491238,81.024208 64.444519,84.973114 63.708206,88.963928 
	C63.476830,90.217995 62.701633,91.371727 61.939522,92.864059 
z"/>
<path fill="#284561" opacity="1.000000" stroke="none" 
	d="
M206.215912,89.517662 
	C205.725632,85.453903 206.956757,82.117043 210.464813,81.158569 
	C212.966217,80.475143 216.634354,80.789536 218.564697,82.258293 
	C220.307724,83.584496 221.623459,87.526169 220.904739,89.508453 
	C220.027618,91.927521 217.112274,94.489365 214.570251,95.219017 
	C210.628143,96.350540 207.700760,93.815903 206.215912,89.517662 
z"/>
<path fill="#264360" opacity="1.000000" stroke="none" 
	d="
M221.386108,202.759308 
	C220.766800,206.838028 218.540466,209.467865 214.928284,209.585693 
	C212.598373,209.661682 209.104446,208.601654 208.119171,206.900162 
	C206.786606,204.598923 206.217072,200.519119 207.437225,198.452026 
	C208.659790,196.380859 212.496475,194.840744 215.167389,194.870331 
	C219.321991,194.916321 221.285919,198.237854 221.386108,202.759308 
z"/>
<path fill="#284561" opacity="1.000000" stroke="none" 
	d="
M231.475952,108.326172 
	C235.583008,111.346550 236.385513,115.032883 234.062363,118.966064 
	C231.964890,122.517128 228.494522,123.632118 224.616531,121.988632 
	C220.988861,120.451218 219.442566,117.454330 220.053070,113.556198 
	C220.826920,108.615204 225.319427,106.470985 231.475952,108.326172 
z"/>
<path fill="#264360" opacity="1.000000" stroke="none" 
	d="
M184.562454,66.810562 
	C184.890869,61.848064 187.172653,59.028622 191.944931,58.797184 
	C195.957443,58.602596 198.620346,60.693653 199.634506,64.456879 
	C200.666016,68.284424 199.111801,71.292305 195.655319,73.154625 
	C190.996017,75.665001 186.404617,73.136131 184.562454,66.810562 
z"/>
<path fill="#284561" opacity="1.000000" stroke="none" 
	d="
M235.229126,175.013931 
	C234.053055,180.496155 231.100998,183.123596 226.951782,182.743195 
	C222.974548,182.378540 219.903824,179.088974 219.946503,175.073395 
	C219.991867,170.802979 222.364288,168.306549 226.403351,167.481140 
	C230.737381,166.595444 233.953934,169.306320 235.229126,175.013931 
z"/>
<path fill="#264360" opacity="1.000000" stroke="none" 
	d="
M194.448059,230.968674 
	C191.716003,230.491058 188.983215,230.495987 187.125580,229.223419 
	C183.751205,226.911804 183.694458,221.601028 186.446686,218.542343 
	C189.137924,215.551422 193.669098,215.114136 196.846909,217.538651 
	C200.254044,220.138153 201.015457,224.883545 198.353867,228.182846 
	C197.453781,229.298599 196.027634,229.989975 194.448059,230.968674 
z"/>
<path fill="#264360" opacity="1.000000" stroke="none" 
	d="
M104.176773,60.129227 
	C99.140656,59.223644 96.835907,56.298191 97.194191,51.725456 
	C97.479576,48.083229 99.779274,45.715321 103.450348,45.026669 
	C107.617912,44.244884 111.545914,46.960403 112.290314,50.994061 
	C113.208466,55.969311 110.469238,59.225105 104.176773,60.129227 
z"/>
<path fill="#284561" opacity="1.000000" stroke="none" 
	d="
M227.910797,138.762817 
	C233.271622,136.623947 236.847229,137.478333 238.973373,141.113510 
	C241.010269,144.596100 240.137375,149.000320 236.826523,151.217697 
	C233.337601,153.554352 229.916641,153.214142 226.902878,150.344177 
	C223.727112,147.319946 224.049133,143.201370 227.910797,138.762817 
z"/>
<path fill="#284561" opacity="1.000000" stroke="none" 
	d="
M42.715042,150.638641 
	C37.640366,153.419800 33.900635,153.091354 31.424515,149.687225 
	C29.122889,146.522980 29.167149,143.167969 31.603745,140.086105 
	C34.207855,136.792343 38.946426,136.384262 42.262226,138.981445 
	C45.734554,141.701233 45.991379,145.685501 42.715042,150.638641 
z"/>
<path fill="#284562" opacity="1.000000" stroke="none" 
	d="
M172.267059,55.117702 
	C168.818222,60.255951 164.833237,61.513283 160.919693,59.014011 
	C157.526428,56.847008 156.252136,52.479149 158.181656,49.035828 
	C160.232468,45.376045 163.560562,43.962795 167.439377,45.306801 
	C171.767715,46.806561 173.496307,50.162910 172.267059,55.117702 
z"/>
<path fill="#264360" opacity="1.000000" stroke="none" 
	d="
M99.267212,242.766449 
	C96.316811,238.973572 96.258530,235.408569 99.289886,232.185577 
	C101.990868,229.313843 105.377129,229.002792 108.769363,230.938095 
	C112.072662,232.822647 112.981483,235.911041 112.166893,239.455948 
	C110.893524,244.997360 105.308418,246.544006 99.267212,242.766449 
z"/>
<path fill="#284562" opacity="1.000000" stroke="none" 
	d="
M172.774139,237.110565 
	C172.295776,241.769485 170.188873,244.610245 165.688599,245.039078 
	C161.942856,245.396027 159.294296,243.641479 157.885300,240.208344 
	C156.435486,236.675751 157.593613,233.733597 160.380875,231.367966 
	C164.112900,228.200485 171.937332,229.790024 172.774139,237.110565 
z"/>
<path fill="#264360" opacity="1.000000" stroke="none" 
	d="
M77.928909,58.796913 
	C83.904411,60.301399 86.269020,63.717285 85.030869,68.469101 
	C84.047180,72.244331 80.022865,74.693611 76.105507,73.901245 
	C72.038872,73.078682 69.199577,68.984917 70.112724,64.907097 
	C70.975143,61.055866 73.434395,58.872658 77.928909,58.796913 
z"/>
<path fill="#264360" opacity="1.000000" stroke="none" 
	d="
M85.171181,224.762131 
	C82.926949,230.497101 79.191353,232.511093 74.717720,230.782059 
	C71.115738,229.389908 69.076836,225.024857 70.282547,221.286850 
	C71.496651,217.522827 75.562462,215.159622 79.414520,216.194168 
	C83.509178,217.293884 85.433929,220.104141 85.171181,224.762131 
z"/>
<path fill="#2B4661" opacity="1.000000" stroke="none" 
	d="
M118.251389,209.838226 
	C119.400238,214.243790 117.657463,216.856247 113.740555,217.441376 
	C110.274689,217.959122 107.906120,215.931000 107.585297,212.412537 
	C107.287697,209.148727 109.106430,206.611115 112.362877,206.621567 
	C114.282570,206.627747 116.196350,208.475281 118.251389,209.838226 
z"/>
<path fill="#2B4661" opacity="1.000000" stroke="none" 
	d="
M113.036667,83.670097 
	C109.471909,83.048241 107.224373,81.175911 107.679054,77.913689 
	C107.929672,76.115593 109.527786,73.749321 111.113365,73.106354 
	C112.692329,72.466057 115.509918,73.043732 116.916435,74.170677 
	C120.634651,77.149834 118.861740,81.626648 113.036667,83.670097 
z"/>
<path fill="#2C4762" opacity="1.000000" stroke="none" 
	d="
M206.810883,120.296791 
	C208.675629,124.745926 207.108994,127.648987 203.079330,128.662003 
	C199.685898,129.515076 196.980835,127.565559 196.697708,124.095284 
	C196.553162,122.323494 197.935928,119.070251 199.102646,118.834557 
	C201.435211,118.363350 204.094406,119.509079 206.810883,120.296791 
z"/>
<path fill="#2C4762" opacity="1.000000" stroke="none" 
	d="
M151.148422,77.260147 
	C153.315613,75.415237 155.304962,73.154495 157.597870,72.786819 
	C158.871643,72.582565 161.436264,75.284645 162.027679,77.124184 
	C163.017258,80.202118 161.238647,82.804184 157.974701,83.389442 
	C153.686829,84.158272 151.438248,81.890282 151.148422,77.260147 
z"/>
<path fill="#284562" opacity="1.000000" stroke="none" 
	d="
M63.339779,126.590668 
	C61.654819,121.839844 62.735138,118.775421 66.258041,117.946259 
	C69.676872,117.141586 72.254974,118.433289 73.118706,121.918564 
	C73.979683,125.392654 72.354675,128.009186 68.927155,128.582764 
	C67.281174,128.858200 65.362862,127.506279 63.339779,126.590668 
z"/>
<path fill="#2C4762" opacity="1.000000" stroke="none" 
	d="
M151.587524,214.170044 
	C150.458725,209.822327 152.093292,207.159866 156.016586,206.486862 
	C159.197067,205.941299 161.554047,207.637650 162.155838,210.940948 
	C162.753708,214.222641 161.222641,216.930420 158.025848,217.175018 
	C156.017456,217.328674 153.854736,215.465118 151.587524,214.170044 
z"/>
<path fill="#2B4661" opacity="1.000000" stroke="none" 
	d="
M205.318893,171.244278 
	C199.687515,172.909821 195.640869,170.567459 196.645721,166.249268 
	C197.083344,164.368668 199.098068,162.097290 200.885941,161.520538 
	C202.406036,161.030182 205.175659,162.210541 206.420380,163.552994 
	C208.640259,165.947113 208.040680,168.764389 205.318893,171.244278 
z"/>
<path fill="#2C4762" opacity="1.000000" stroke="none" 
	d="
M199.970459,145.776520 
	C200.078674,141.316910 202.281616,139.065903 206.253204,139.526291 
	C209.700760,139.925919 211.796112,142.533600 210.812912,145.917847 
	C210.282043,147.745102 208.113708,149.835281 206.265747,150.375381 
	C203.168686,151.280594 200.956680,149.290558 199.970459,145.776520 
z"/>
<path fill="#284561" opacity="1.000000" stroke="none" 
	d="
M62.941895,164.057846 
	C67.471062,159.995178 72.350922,160.709305 73.007286,165.392944 
	C73.259148,167.190125 72.397675,170.060516 71.062088,170.924210 
	C69.492851,171.938980 65.968811,172.211441 64.897057,171.164001 
	C63.404167,169.705002 63.399979,166.722717 62.941895,164.057846 
z"/>
<path fill="#2C4762" opacity="1.000000" stroke="none" 
	d="
M59.125515,147.061737 
	C58.213989,142.796036 59.801083,139.716599 63.663975,139.667755 
	C65.719170,139.641769 69.113876,142.108627 69.510254,143.962189 
	C69.892654,145.750397 67.627174,149.236969 65.718315,150.025955 
	C64.182678,150.660690 61.442581,148.381409 59.125515,147.061737 
z"/>
<path fill="#2C4762" opacity="1.000000" stroke="none" 
	d="
M196.555389,100.391113 
	C198.273743,103.617218 197.997498,106.566246 195.108078,108.027367 
	C193.393188,108.894554 190.455307,108.834450 188.759552,107.914810 
	C185.885605,106.356232 185.491913,103.205063 187.428650,100.587448 
	C189.991547,97.123550 193.177368,97.020401 196.555389,100.391113 
z"/>
<path fill="#2B4661" opacity="1.000000" stroke="none" 
	d="
M171.672119,204.945068 
	C170.437424,198.889954 173.349518,195.035141 177.735428,196.690765 
	C179.437576,197.333298 181.536377,199.470566 181.664536,201.070328 
	C181.813065,202.923859 180.358994,206.158829 178.937500,206.585663 
	C176.905045,207.195984 174.270828,205.802292 171.672119,204.945068 
z"/>
<path fill="#2C4762" opacity="1.000000" stroke="none" 
	d="
M93.071182,82.464706 
	C98.204994,83.873970 100.486160,86.948181 98.444962,90.063438 
	C97.317558,91.784058 94.519333,93.415482 92.587067,93.293983 
	C90.958237,93.191559 88.657417,90.738464 88.135170,88.904182 
	C87.173508,85.526596 89.249992,83.269157 93.071182,82.464706 
z"/>
<path fill="#2C4762" opacity="1.000000" stroke="none" 
	d="
M170.885742,88.016724 
	C171.348450,84.037933 173.587875,81.895393 176.945587,82.730217 
	C178.883347,83.212006 181.615280,85.703819 181.644150,87.332512 
	C181.679672,89.336823 179.686417,92.478714 177.832031,93.181427 
	C174.174423,94.567451 171.521713,92.485260 170.885742,88.016724 
z"/>
<path fill="#2B4661" opacity="1.000000" stroke="none" 
	d="
M72.860809,106.126877 
	C73.450325,103.468407 73.590843,100.500366 75.145348,99.081856 
	C76.243462,98.079781 79.753456,98.478310 81.266411,99.550346 
	C82.573380,100.476425 83.354088,103.381470 83.015411,105.153252 
	C82.131577,109.777016 77.171928,110.316826 72.860809,106.126877 
z"/>
<path fill="#2B4661" opacity="1.000000" stroke="none" 
	d="
M82.440094,189.560699 
	C79.787216,192.505142 76.694641,193.042511 74.372429,190.520813 
	C73.036926,189.070572 72.311546,185.641510 73.130287,184.023575 
	C73.946587,182.410446 77.248291,180.845383 79.083488,181.201447 
	C83.309669,182.021423 84.310402,185.301163 82.440094,189.560699 
z"/>
<path fill="#2C4762" opacity="1.000000" stroke="none" 
	d="
M129.677490,217.291046 
	C128.799576,213.164581 130.385635,210.282867 134.040817,210.163605 
	C136.068039,210.097443 139.355179,212.111557 139.913055,213.872681 
	C140.465485,215.616608 138.894882,219.072159 137.195663,220.256836 
	C134.350830,222.240265 131.506622,220.755203 129.677490,217.291046 
z"/>
<path fill="#2C4762" opacity="1.000000" stroke="none" 
	d="
M139.905670,72.032249 
	C141.265594,76.546844 139.770264,79.756836 135.509201,79.841599 
	C133.482788,79.881912 130.320023,77.421059 129.588150,75.399521 
	C128.425171,72.187233 130.761566,69.421074 134.210663,69.224899 
	C136.003052,69.122971 137.897430,70.814461 139.905670,72.032249 
z"/>
<path fill="#2C4762" opacity="1.000000" stroke="none" 
	d="
M98.176552,204.900696 
	C93.476677,208.672318 88.553177,207.710388 88.128609,203.076889 
	C87.962738,201.266632 88.985695,198.452744 90.375351,197.630127 
	C91.968956,196.686752 95.512901,196.584229 96.509865,197.672913 
	C97.937317,199.231705 97.824028,202.201447 98.176552,204.900696 
z"/>
<path fill="#2C4762" opacity="1.000000" stroke="none" 
	d="
M197.504898,185.331924 
	C196.635086,190.796082 193.569778,193.418045 190.165710,191.503433 
	C188.455963,190.541794 186.628769,188.000763 186.671890,186.217957 
	C186.714325,184.464661 188.717957,181.935425 190.462540,181.226074 
	C193.639023,179.934525 196.246796,181.546478 197.504898,185.331924 
z"/>
<path fill="#304B65" opacity="1.000000" stroke="none" 
	d="
M177.814102,144.311920 
	C179.565033,143.207367 181.216705,142.060699 182.960358,141.897614 
	C183.529114,141.844421 185.065460,144.499542 184.836243,145.653137 
	C184.596588,146.859344 182.140167,148.821442 181.738937,148.587784 
	C180.175659,147.677505 179.043274,146.027267 177.814102,144.311920 
z"/>
<path fill="#304B65" opacity="1.000000" stroke="none" 
	d="
M85.728188,147.495850 
	C85.890839,145.412354 85.970200,143.403091 86.868858,141.875946 
	C87.145622,141.405609 90.206619,141.757294 90.996620,142.632141 
	C91.806595,143.529114 91.916870,146.608643 91.425270,146.845108 
	C89.827370,147.613754 87.813866,147.518448 85.728188,147.495850 
z"/>
<path fill="#304B65" opacity="1.000000" stroke="none" 
	d="
M182.865570,159.913391 
	C181.090164,161.104050 179.437927,162.302002 177.661514,162.529205 
	C177.095947,162.601547 175.473450,159.978210 175.660431,158.798538 
	C175.847076,157.620926 178.170883,155.633438 178.724487,155.879059 
	C180.351685,156.601013 181.565186,158.255432 182.865570,159.913391 
z"/>
<path fill="#304B65" opacity="1.000000" stroke="none" 
	d="
M177.647919,127.279839 
	C179.609344,128.103653 181.479568,128.848190 182.678833,130.191666 
	C183.017365,130.570938 181.680618,133.374969 180.587112,133.844894 
	C179.467911,134.325851 176.512253,133.460953 176.442291,132.917267 
	C176.215332,131.153458 176.942612,129.266861 177.647919,127.279839 
z"/>
<path fill="#2C4762" opacity="1.000000" stroke="none" 
	d="
M87.120728,131.561401 
	C88.312538,129.799149 89.430359,128.158905 90.968315,127.176216 
	C91.372581,126.917900 93.823364,128.564606 93.999931,129.570694 
	C94.229568,130.879120 93.027054,133.679214 92.615005,133.646484 
	C90.777374,133.500443 89.001778,132.573792 87.120728,131.561401 
z"/>
<path fill="#2C4762" opacity="1.000000" stroke="none" 
	d="
M87.363197,157.771240 
	C89.405136,157.155991 91.303337,156.578140 93.119011,156.772278 
	C93.585655,156.822159 94.453384,159.670715 93.951485,160.577316 
	C93.318764,161.720200 90.643211,163.104904 90.292938,162.788208 
	C88.945503,161.569962 88.174629,159.714020 87.363197,157.771240 
z"/>
<path fill="#2B4661" opacity="1.000000" stroke="none" 
	d="
M99.248871,120.869072 
	C97.222649,120.245132 95.303711,119.687439 93.941032,118.494408 
	C93.598389,118.194427 94.697182,115.381279 95.770592,114.612144 
	C96.590416,114.024719 99.491562,114.594803 99.601219,115.075523 
	C100.007065,116.854813 99.639259,118.810562 99.248871,120.869072 
z"/>
<path fill="#304B65" opacity="1.000000" stroke="none" 
	d="
M151.840698,191.782837 
	C149.741180,191.682587 147.725128,191.653137 146.197922,190.774246 
	C145.711929,190.494583 146.022842,187.438065 146.887756,186.598053 
	C147.737686,185.772522 150.808655,185.603333 151.063812,186.097260 
	C151.875214,187.667984 151.828537,189.681992 151.840698,191.782837 
z"/>
<path fill="#2C4762" opacity="1.000000" stroke="none" 
	d="
M134.974854,187.734863 
	C136.371445,189.275589 137.771133,190.703842 138.272064,192.397858 
	C138.421997,192.904938 136.043015,194.889435 134.855957,194.859848 
	C133.635620,194.829437 131.300583,192.754303 131.465836,192.289612 
	C132.064789,190.605301 133.508621,189.221420 134.974854,187.734863 
z"/>
<path fill="#304B65" opacity="1.000000" stroke="none" 
	d="
M149.142761,97.134048 
	C152.663956,97.990112 154.145569,100.043579 152.187927,102.842773 
	C151.476715,103.859741 148.543564,104.332489 147.249634,103.723869 
	C144.481903,102.421997 145.275452,99.429581 149.142761,97.134048 
z"/>
<path fill="#2C4762" opacity="1.000000" stroke="none" 
	d="
M95.257446,169.229218 
	C97.156372,169.443375 99.004852,169.526062 100.297554,170.416031 
	C100.923592,170.847031 101.034775,173.445953 100.452469,173.916336 
	C99.239990,174.895813 97.038132,175.966095 95.907951,175.473404 
	C93.061775,174.232651 92.872536,171.829987 95.257446,169.229218 
z"/>
<path fill="#2C4762" opacity="1.000000" stroke="none" 
	d="
M135.672974,95.022659 
	C136.867508,96.532028 138.086105,97.908592 138.336502,99.443146 
	C138.457870,100.187019 136.541595,102.114632 135.935135,101.962494 
	C134.278397,101.546860 132.827454,100.310913 131.294998,99.399872 
	C132.629578,97.918190 133.964157,96.436516 135.672974,95.022659 
z"/>
<path fill="#2B4661" opacity="1.000000" stroke="none" 
	d="
M169.607178,119.942368 
	C169.826096,117.936951 170.021530,116.039673 170.921860,114.576004 
	C171.240768,114.057556 173.555557,114.175873 174.451813,114.769493 
	C175.350174,115.364517 176.246613,117.043953 176.046692,118.024384 
	C175.268982,121.838432 172.906662,122.237061 169.607178,119.942368 
z"/>
<path fill="#304B65" opacity="1.000000" stroke="none" 
	d="
M104.922028,185.038849 
	C104.925087,183.000656 104.771729,180.945526 105.682732,179.624252 
	C106.128906,178.977142 108.894470,179.201630 109.973061,179.950043 
	C110.825012,180.541183 111.187149,183.620789 110.936760,183.732346 
	C109.145126,184.530655 107.140770,184.851578 104.922028,185.038849 
z"/>
<path fill="#284561" opacity="1.000000" stroke="none" 
	d="
M160.675568,110.805855 
	C158.015091,108.572510 157.785019,106.150230 160.367203,104.500931 
	C161.389786,103.847778 163.745926,104.616211 165.089813,105.417107 
	C165.748703,105.809776 166.054016,108.372116 165.515991,108.871506 
	C164.365158,109.939651 162.561325,110.304260 160.675568,110.805855 
z"/>
<path fill="#304B65" opacity="1.000000" stroke="none" 
	d="
M109.241844,110.782516 
	C107.340645,110.323814 105.408272,110.050278 104.374451,108.940041 
	C103.796028,108.318863 104.314415,106.007866 105.072136,105.022209 
	C105.679924,104.231583 107.650917,103.686333 108.568916,104.079185 
	C112.076843,105.580383 112.180763,107.975975 109.241844,110.782516 
z"/>
<path fill="#2C4762" opacity="1.000000" stroke="none" 
	d="
M120.187012,192.835190 
	C118.919907,191.092667 117.742531,189.461578 117.357849,187.661118 
	C117.251595,187.163803 119.648552,185.396698 120.641556,185.581863 
	C121.939484,185.823914 124.120728,187.853622 123.928360,188.366608 
	C123.295631,190.053772 121.762901,191.403397 120.187012,192.835190 
z"/>
<path fill="#2B4661" opacity="1.000000" stroke="none" 
	d="
M170.037430,174.944427 
	C170.066788,172.815369 170.090378,170.821991 170.880707,169.202911 
	C171.082367,168.789825 174.086731,169.105362 175.109390,169.938232 
	C175.904007,170.585403 176.147476,173.536041 175.720490,173.766464 
	C174.123032,174.628479 172.149200,174.793060 170.037430,174.944427 
z"/>
<path fill="#2B4661" opacity="1.000000" stroke="none" 
	d="
M123.489044,103.104904 
	C121.363029,103.283340 119.385971,103.452728 117.666199,102.866859 
	C117.204590,102.709610 116.955894,99.761131 117.632782,98.974159 
	C118.486992,97.981026 121.412376,97.175819 121.661949,97.533424 
	C122.714073,99.040970 123.103004,101.011353 123.489044,103.104904 
z"/>
<path fill="#284561" opacity="1.000000" stroke="none" 
	d="
M165.939056,182.896255 
	C164.217468,184.162857 162.595993,185.317474 160.809052,185.700684 
	C160.396774,185.789108 158.841827,183.216385 158.885696,181.904144 
	C158.919601,180.890152 161.078827,178.931366 161.516190,179.127258 
	C163.175110,179.870331 164.517944,181.318985 165.939056,182.896255 
z"/>
<path fill="#F3F1EE" opacity="1.000000" stroke="none" 
	d="
M299.399780,127.012573 
	C301.032684,135.533676 298.925690,138.493576 290.903625,139.503952 
	C289.590088,139.669373 288.257172,139.732452 286.932220,139.745865 
	C283.630615,139.779297 280.328430,139.756882 276.661469,139.756882 
	C276.661469,133.950897 276.661469,128.435593 276.661469,122.081154 
	C282.610077,122.420784 288.370636,122.486893 294.043854,123.224586 
	C295.882355,123.463638 297.492035,125.462448 299.399780,127.012573 
z"/>
<path fill="#FAF6F3" opacity="1.000000" stroke="none" 
	d="
M524.879333,169.029846 
	C518.639038,170.064178 515.109375,168.536697 512.739807,163.346970 
	C509.548889,156.358170 509.596771,149.142639 512.682312,142.125381 
	C514.493958,138.005325 517.759766,135.578369 522.520569,135.914917 
	C527.220825,136.247177 530.146484,139.413284 530.605042,143.475922 
	C531.299622,149.629410 531.253540,155.987747 530.475708,162.126434 
	C530.165527,164.574799 527.068726,166.670090 524.879333,169.029846 
z"/>
<path fill="#F9F5F2" opacity="1.000000" stroke="none" 
	d="
M567.363831,148.665222 
	C567.607788,147.434570 567.749756,146.613815 567.967346,145.813614 
	C569.803894,139.057114 573.830322,135.518478 579.228638,135.896881 
	C584.046448,136.234589 587.554504,139.904495 588.055237,146.842499 
	C588.441223,152.191147 587.898193,157.716202 586.946777,163.015305 
	C586.260620,166.836960 583.061157,169.953278 579.138123,169.379013 
	C575.928772,168.909180 571.510315,166.917816 570.350647,164.364395 
	C568.258850,159.758850 568.203064,154.228653 567.363831,148.665222 
z"/>
<path fill="#F9F5F2" opacity="1.000000" stroke="none" 
	d="
M706.751953,159.940094 
	C706.932861,153.958527 706.775635,148.316742 707.629700,142.832458 
	C708.214905,139.075089 710.988708,136.377731 715.177246,135.947891 
	C719.677490,135.486038 722.927673,137.541626 724.977173,141.379257 
	C728.200928,147.415634 728.182678,153.855103 726.522461,160.275482 
	C725.003296,166.150024 721.008545,169.589142 716.273254,169.650497 
	C711.702148,169.709717 708.803345,166.849289 706.751953,159.940094 
z"/>
<path fill="#F9F5F2" opacity="1.000000" stroke="none" 
	d="
M450.567596,140.780701 
	C456.068146,133.842499 463.808044,134.393463 467.452881,141.951767 
	C470.881470,149.061707 470.753357,156.463013 467.384796,163.629303 
	C465.538055,167.558044 462.248962,169.832352 457.825806,169.580490 
	C453.241791,169.319473 450.676697,166.255692 449.513947,162.115280 
	C447.531525,155.055984 447.549744,148.008804 450.567596,140.780701 
z"/>
<path fill="#F9F5F2" opacity="1.000000" stroke="none" 
	d="
M344.382874,135.121643 
	C352.404877,135.424316 355.606201,138.831238 355.690155,146.911774 
	C348.914124,146.911774 342.139465,146.911774 335.358521,146.911774 
	C335.574890,140.132889 337.615906,137.390549 344.382874,135.121643 
z"/>
<path fill="#F9F5F2" opacity="1.000000" stroke="none" 
	d="
M823.803650,142.795914 
	C823.988647,144.348755 824.069763,145.490875 824.169189,146.891113 
	C817.216797,146.891113 810.462219,146.891113 803.700623,146.891113 
	C803.981934,140.227158 807.002869,136.120239 812.233154,135.179733 
	C817.495911,134.233383 821.004395,136.438034 823.803650,142.795914 
z"/>
</svg>