<svg xmlns="http://www.w3.org/2000/svg" width="1536" height="600" viewBox="0 212 1536 600">
<rect width="100%" height="100%" fill="#FEFAF6"/>
<circle cx="500.0" cy="512.0" r="18" fill="#0a35c9"/>
<circle cx="493.9" cy="558.6" r="18" fill="#0a35c9"/>
<circle cx="475.9" cy="602.0" r="18" fill="#0a35c9"/>
<circle cx="447.3" cy="639.3" r="18" fill="#0a35c9"/>
<circle cx="410.0" cy="667.9" r="18" fill="#0a35c9"/>
<circle cx="366.6" cy="685.9" r="18" fill="#0a35c9"/>
<circle cx="320.0" cy="692.0" r="18" fill="#0a35c9"/>
<circle cx="273.4" cy="685.9" r="18" fill="#0a35c9"/>
<circle cx="230.0" cy="667.9" r="18" fill="#0a35c9"/>
<circle cx="192.7" cy="639.3" r="18" fill="#0a35c9"/>
<circle cx="164.1" cy="602.0" r="18" fill="#0a35c9"/>
<circle cx="146.1" cy="558.6" r="18" fill="#0a35c9"/>
<circle cx="140.0" cy="512.0" r="18" fill="#0a35c9"/>
<circle cx="146.1" cy="465.4" r="18" fill="#0a35c9"/>
<circle cx="164.1" cy="422.0" r="18" fill="#0a35c9"/>
<circle cx="192.7" cy="384.7" r="18" fill="#0a35c9"/>
<circle cx="230.0" cy="356.1" r="18" fill="#0a35c9"/>
<circle cx="273.4" cy="338.1" r="18" fill="#0a35c9"/>
<circle cx="320.0" cy="332.0" r="18" fill="#0a35c9"/>
<circle cx="366.6" cy="338.1" r="18" fill="#0a35c9"/>
<circle cx="410.0" cy="356.1" r="18" fill="#0a35c9"/>
<circle cx="447.3" cy="384.7" r="18" fill="#0a35c9"/>
<circle cx="475.9" cy="422.0" r="18" fill="#0a35c9"/>
<circle cx="493.9" cy="465.4" r="18" fill="#0a35c9"/>
<circle cx="443.9" cy="528.3" r="12" fill="#0a35c9"/>
<circle cx="435.5" cy="559.8" r="12" fill="#0a35c9"/>
<circle cx="419.2" cy="588.1" r="12" fill="#0a35c9"/>
<circle cx="396.1" cy="611.2" r="12" fill="#0a35c9"/>
<circle cx="367.8" cy="627.5" r="12" fill="#0a35c9"/>
<circle cx="336.3" cy="635.9" r="12" fill="#0a35c9"/>
<circle cx="303.7" cy="635.9" r="12" fill="#0a35c9"/>
<circle cx="272.2" cy="627.5" r="12" fill="#0a35c9"/>
<circle cx="243.9" cy="611.2" r="12" fill="#0a35c9"/>
<circle cx="220.8" cy="588.1" r="12" fill="#0a35c9"/>
<circle cx="204.5" cy="559.8" r="12" fill="#0a35c9"/>
<circle cx="196.1" cy="528.3" r="12" fill="#0a35c9"/>
<circle cx="196.1" cy="495.7" r="12" fill="#0a35c9"/>
<circle cx="204.5" cy="464.2" r="12" fill="#0a35c9"/>
<circle cx="220.8" cy="435.9" r="12" fill="#0a35c9"/>
<circle cx="243.9" cy="412.8" r="12" fill="#0a35c9"/>
<circle cx="272.2" cy="396.5" r="12" fill="#0a35c9"/>
<circle cx="303.7" cy="388.1" r="12" fill="#0a35c9"/>
<circle cx="336.3" cy="388.1" r="12" fill="#0a35c9"/>
<circle cx="367.8" cy="396.5" r="12" fill="#0a35c9"/>
<circle cx="396.1" cy="412.8" r="12" fill="#0a35c9"/>
<circle cx="419.2" cy="435.9" r="12" fill="#0a35c9"/>
<circle cx="435.5" cy="464.2" r="12" fill="#0a35c9"/>
<circle cx="443.9" cy="495.7" r="12" fill="#0a35c9"/>
<circle cx="405.0" cy="512.0" r="8" fill="#0a35c9"/>
<circle cx="400.8" cy="538.3" r="8" fill="#0a35c9"/>
<circle cx="388.8" cy="562.0" r="8" fill="#0a35c9"/>
<circle cx="370.0" cy="580.8" r="8" fill="#0a35c9"/>
<circle cx="346.3" cy="592.8" r="8" fill="#0a35c9"/>
<circle cx="320.0" cy="597.0" r="8" fill="#0a35c9"/>
<circle cx="293.7" cy="592.8" r="8" fill="#0a35c9"/>
<circle cx="270.0" cy="580.8" r="8" fill="#0a35c9"/>
<circle cx="251.2" cy="562.0" r="8" fill="#0a35c9"/>
<circle cx="239.2" cy="538.3" r="8" fill="#0a35c9"/>
<circle cx="235.0" cy="512.0" r="8" fill="#0a35c9"/>
<circle cx="239.2" cy="485.7" r="8" fill="#0a35c9"/>
<circle cx="251.2" cy="462.0" r="8" fill="#0a35c9"/>
<circle cx="270.0" cy="443.2" r="8" fill="#0a35c9"/>
<circle cx="293.7" cy="431.2" r="8" fill="#0a35c9"/>
<circle cx="320.0" cy="427.0" r="8" fill="#0a35c9"/>
<circle cx="346.3" cy="431.2" r="8" fill="#0a35c9"/>
<circle cx="370.0" cy="443.2" r="8" fill="#0a35c9"/>
<circle cx="388.8" cy="462.0" r="8" fill="#0a35c9"/>
<circle cx="400.8" cy="485.7" r="8" fill="#0a35c9"/>
<circle cx="320" cy="467" r="24" fill="#0a35c9"/>
<path d="M 278 537 Q 320 502 362 537 L 362 567 L 278 567 Z" fill="#0a35c9"/>
<text x="560" y="565" font-family="Arial, Helvetica, sans-serif" font-size="140" font-weight="700" fill="#0a35c9">Rehabb Care</text>
</svg>